PathFileType	4	(X/Y/Z)	c:/Users/goper/Files/vsCode/490R/osim_files/A05/A05_Slow_04.trc
DataRate	CameraRate	NumFrames	NumMarkers	Units                	OrigDataRate	OrigDataStartFrame	OrigNumFrames
250.00	250.00	10	36	mm	250.0	2302	3068
                Frame#	Time	LPSIS			LASIS			LTH1			LTH2			LTH3			LTH4			LLFE			LMFE			LSH1			LSH2			LSH3			LSH4			LLMAL			LMMAL			LCAL			LMTP5			LTOE			LMTP1			RPSIS			RASIS			RTH1			RTH2			RTH3			RTH4			RLFE			RMFE			RSH1			RSH2			RSH3			RSH4			RLMAL			RMMAL			RCAL			RMTP1			RTOE			RMTP5		
		X1	Y1	Z1	X2	Y2	Z2	X3	Y3	Z3	X4	Y4	Z4	X5	Y5	Z5	X6	Y6	Z6	X7	Y7	Z7	X8	Y8	Z8	X9	Y9	Z9	X10	Y10	Z10	X11	Y11	Z11	X12	Y12	Z12	X13	Y13	Z13	X14	Y14	Z14	X15	Y15	Z15	X16	Y16	Z16	X17	Y17	Z17	X18	Y18	Z18	X19	Y19	Z19	X20	Y20	Z20	X21	Y21	Z21	X22	Y22	Z22	X23	Y23	Z23	X24	Y24	Z24	X25	Y25	Z25	X26	Y26	Z26	X27	Y27	Z27	X28	Y28	Z28	X29	Y29	Z29	X30	Y30	Z30	X31	Y31	Z31	X32	Y32	Z32	X33	Y33	Z33	X34	Y34	Z34	X35	Y35	Z35	X36	Y36	Z36

2302	9.20400	0.00000	0.00000	0.00000	-3360.99927	988.14880	415.12631	0.00000	0.00000	0.00000	-3329.66016	659.00562	474.61462	-3351.09302	721.16663	485.29568	-3374.13525	684.55573	485.21625	-3444.51953	520.04083	469.82605	0.00000	0.00000	0.00000	-3498.10645	427.47186	472.55707	-3503.11890	383.93607	480.71384	-3441.08081	418.65421	485.79932	-3451.21167	375.96506	491.57635	0.00000	0.00000	0.00000	-3302.73511	692.81848	470.07159	0.00000	0.00000	0.00000	-3261.39966	503.01343	241.08664	0.00000	0.00000	0.00000	0.00000	0.00000	0.00000	0.00000	0.00000	0.00000	0.00000	0.00000	0.00000	0.00000	0.00000	0.00000	0.00000	0.00000	0.00000	-3326.11572	605.32953	105.37966	-3321.69214	559.79901	118.63836	0.00000	0.00000	0.00000	0.00000	0.00000	0.00000	0.00000	0.00000	0.00000	0.00000	0.00000	0.00000	-3209.33545	254.74583	121.44252	0.00000	0.00000	0.00000	-3115.87720	117.24272	146.29138	0.00000	0.00000	0.00000	-3060.75073	71.31960	228.64157	-3276.74194	60.78781	218.52686	-3304.59106	67.82586	162.31725	-3233.53418	47.50883	105.83636
2303	9.20800	0.00000	0.00000	0.00000	-3364.16577	987.59814	415.42410	0.00000	0.00000	0.00000	-3333.18433	658.49689	474.74759	-3354.59131	720.66962	485.35333	-3373.92505	682.44690	484.17453	-3448.16870	519.64069	469.56937	0.00000	0.00000	0.00000	-3501.93164	427.21136	472.12531	-3507.09253	383.65131	480.23273	-3444.93262	418.17624	485.52768	-3455.21851	375.59277	491.24933	0.00000	0.00000	0.00000	-3306.28809	692.31445	470.40079	0.00000	0.00000	0.00000	-3262.78857	502.89038	241.23251	0.00000	0.00000	0.00000	0.00000	0.00000	0.00000	0.00000	0.00000	0.00000	0.00000	0.00000	0.00000	0.00000	0.00000	0.00000	0.00000	0.00000	0.00000	-3327.67358	605.09094	105.46404	-3323.17041	559.56915	118.72525	0.00000	0.00000	0.00000	0.00000	0.00000	0.00000	0.00000	0.00000	0.00000	0.00000	0.00000	0.00000	-3209.92310	254.79372	121.54247	0.00000	0.00000	0.00000	-3116.05591	117.50341	146.36916	0.00000	0.00000	0.00000	-3060.85474	71.37781	228.68221	-3276.82861	60.79085	218.52443	-3304.63696	67.79961	162.32352	-3233.59058	47.53930	105.85230
2304	9.21200	0.00000	0.00000	0.00000	-3367.42896	986.96808	415.76355	0.00000	0.00000	0.00000	-3336.73608	658.05695	474.94104	-3358.09766	720.14246	485.34836	-3377.37939	681.91705	484.11398	-3451.84448	519.22430	469.28937	0.00000	0.00000	0.00000	-3505.77344	426.85254	471.67566	-3510.94434	383.29987	479.77023	-3448.81348	417.74701	485.20892	-3459.21509	375.17361	490.91159	0.00000	0.00000	0.00000	-3309.77148	691.88098	470.75162	0.00000	0.00000	0.00000	0.00000	0.00000	0.00000	-3385.13989	573.05054	246.95020	0.00000	0.00000	0.00000	-3191.10767	211.71092	126.57186	0.00000	0.00000	0.00000	0.00000	0.00000	0.00000	0.00000	0.00000	0.00000	-3329.20581	604.83875	105.52226	-3324.64575	559.32141	118.76414	0.00000	0.00000	0.00000	0.00000	0.00000	0.00000	0.00000	0.00000	0.00000	0.00000	0.00000	0.00000	-3210.47510	254.82213	121.65865	0.00000	0.00000	0.00000	0.00000	0.00000	0.00000	0.00000	0.00000	0.00000	-3060.93945	71.43888	228.72713	-3276.90552	60.78997	218.55440	-3304.62549	67.68256	162.30716	-3233.57202	47.52441	105.82402
2305	9.21600	0.00000	0.00000	0.00000	-3370.70386	986.35693	416.01154	0.00000	0.00000	0.00000	-3340.28125	657.40668	475.03903	-3365.67505	721.54572	486.43045	-3381.09619	681.42242	484.11249	-3455.42798	518.69720	469.01495	0.00000	0.00000	0.00000	-3509.49194	426.44724	471.18552	-3514.72314	382.85443	479.25690	-3452.54517	417.18723	484.93381	-3463.03760	374.64819	490.59756	0.00000	0.00000	0.00000	-3313.28198	691.22052	470.89755	0.00000	0.00000	0.00000	-3265.79663	502.71466	241.48122	0.00000	0.00000	0.00000	0.00000	0.00000	0.00000	0.00000	0.00000	0.00000	0.00000	0.00000	0.00000	0.00000	0.00000	0.00000	0.00000	0.00000	0.00000	-3330.77808	604.58600	105.64186	-3326.13232	559.07056	118.82230	0.00000	0.00000	0.00000	0.00000	0.00000	0.00000	0.00000	0.00000	0.00000	0.00000	0.00000	0.00000	-3210.92334	254.75760	121.73723	0.00000	0.00000	0.00000	0.00000	0.00000	0.00000	0.00000	0.00000	0.00000	-3061.05249	71.50134	228.75342	-3276.91895	60.76045	218.53558	-3304.71924	67.65650	162.28305	-3233.53491	47.45860	105.82367
2306	9.22000	0.00000	0.00000	0.00000	-3374.02051	985.74042	416.32507	0.00000	0.00000	0.00000	0.00000	0.00000	0.00000	-3369.24512	720.96417	486.47220	-3384.54517	680.80322	484.06668	-3459.01758	518.20190	468.67844	0.00000	0.00000	0.00000	-3513.27734	425.97687	470.70139	-3518.54443	382.39798	478.75809	-3456.23291	416.59616	484.66348	-3466.82349	374.07806	490.30634	0.00000	0.00000	0.00000	0.00000	0.00000	0.00000	0.00000	0.00000	0.00000	-3267.30176	502.59830	241.63489	0.00000	0.00000	0.00000	0.00000	0.00000	0.00000	-2779.34473	277.89627	50.52682	0.00000	0.00000	0.00000	0.00000	0.00000	0.00000	0.00000	0.00000	0.00000	-3332.42358	604.32910	105.76484	-3327.65674	558.78839	118.87586	0.00000	0.00000	0.00000	0.00000	0.00000	0.00000	0.00000	0.00000	0.00000	0.00000	0.00000	0.00000	-3211.50879	254.78087	121.86040	0.00000	0.00000	0.00000	0.00000	0.00000	0.00000	0.00000	0.00000	0.00000	-3061.20801	71.58858	228.81105	-3276.96875	60.76078	218.50778	-3304.76709	67.58360	162.26628	-3233.58716	47.46974	105.82948
2307	9.22400	0.00000	0.00000	0.00000	-3377.29053	985.13733	416.52148	0.00000	0.00000	0.00000	0.00000	0.00000	0.00000	-3372.84961	720.41376	486.51022	-3392.04565	682.05023	485.10706	-3462.62109	517.65045	468.40131	0.00000	0.00000	0.00000	-3516.76855	425.36703	470.12561	-3522.32202	381.90805	478.22519	-3459.98022	416.08517	484.37454	-3470.64746	373.54340	489.97824	0.00000	0.00000	0.00000	-3320.38989	689.97723	471.27621	0.00000	0.00000	0.00000	-3268.80615	502.49420	241.80399	0.00000	0.00000	0.00000	0.00000	0.00000	0.00000	0.00000	0.00000	0.00000	0.00000	0.00000	0.00000	0.00000	0.00000	0.00000	0.00000	0.00000	0.00000	-3334.01440	604.03662	105.87809	-3329.21436	558.54211	118.96329	0.00000	0.00000	0.00000	-2783.39038	278.34839	50.91758	0.00000	0.00000	0.00000	0.00000	0.00000	0.00000	-3211.98633	254.79637	121.95240	0.00000	0.00000	0.00000	0.00000	0.00000	0.00000	0.00000	0.00000	0.00000	-3056.50977	68.30130	227.68832	-3277.07227	60.76472	218.49103	-3304.78467	67.49968	162.24405	-3233.55029	47.41110	105.79871
2308	9.22800	0.00000	0.00000	0.00000	-3380.64380	984.45959	416.83777	0.00000	0.00000	0.00000	0.00000	0.00000	0.00000	-3372.20996	717.73120	485.48001	-3395.64990	681.44299	485.07077	-3466.11353	517.03577	468.13083	0.00000	0.00000	0.00000	-3520.39111	424.82053	469.66718	-3525.94824	381.36081	477.69772	-3463.48901	415.37061	484.08978	-3474.17871	372.85239	489.65649	0.00000	0.00000	0.00000	-3323.93506	689.45490	471.59955	0.00000	0.00000	0.00000	-3270.32617	502.38031	241.93719	0.00000	0.00000	0.00000	0.00000	0.00000	0.00000	0.00000	0.00000	0.00000	0.00000	0.00000	0.00000	0.00000	0.00000	0.00000	0.00000	0.00000	0.00000	-3335.58911	603.78094	105.99459	-3330.73560	558.28259	119.05884	0.00000	0.00000	0.00000	-2787.44604	278.78073	51.32666	0.00000	0.00000	0.00000	0.00000	0.00000	0.00000	-3212.45557	254.79413	122.03561	-3192.63013	212.04393	127.13585	0.00000	0.00000	0.00000	0.00000	0.00000	0.00000	-3056.62183	68.35830	227.76163	-3277.11035	60.74456	218.49509	-3304.80347	67.43003	162.24686	-3233.56543	47.42732	105.82059
2309	9.23200	0.00000	0.00000	0.00000	-3384.03003	983.84717	417.11533	0.00000	0.00000	0.00000	0.00000	0.00000	0.00000	0.00000	0.00000	0.00000	-3395.20947	678.93768	483.97510	-3469.59033	516.40833	467.81610	0.00000	0.00000	0.00000	-3523.95361	424.23474	469.12802	-3529.45068	380.70325	477.19244	-3467.10400	414.74957	483.84628	-3477.92896	372.28021	489.41650	0.00000	0.00000	0.00000	-3327.42041	688.79694	471.90704	0.00000	0.00000	0.00000	0.00000	0.00000	0.00000	-3375.74268	717.11774	485.53857	0.00000	0.00000	0.00000	0.00000	0.00000	0.00000	0.00000	0.00000	0.00000	0.00000	0.00000	0.00000	0.00000	0.00000	0.00000	-3337.21655	603.51654	106.13311	-3332.27295	557.97198	119.13758	0.00000	0.00000	0.00000	-2791.57422	279.18506	51.74301	0.00000	0.00000	0.00000	0.00000	0.00000	0.00000	-3213.03833	254.86209	122.15103	0.00000	0.00000	0.00000	0.00000	0.00000	0.00000	0.00000	0.00000	0.00000	-3056.76904	68.44234	227.83704	-3277.19165	60.75368	218.52400	-3304.89941	67.39635	162.26770	-3233.57935	47.43885	105.84198
2310	9.23600	0.00000	0.00000	0.00000	-3387.32715	983.14038	417.39746	-3398.86963	678.38025	483.96783	0.00000	0.00000	0.00000	0.00000	0.00000	0.00000	0.00000	0.00000	0.00000	-3472.96387	515.73401	467.52646	0.00000	0.00000	0.00000	-3527.35913	423.56125	468.62750	-3532.96118	380.07217	476.64777	-3470.52002	413.98990	483.60580	-3481.44043	371.58969	489.17444	0.00000	0.00000	0.00000	-3330.90015	688.17114	472.30795	0.00000	0.00000	0.00000	0.00000	0.00000	0.00000	-3379.35156	716.50128	485.58362	0.00000	0.00000	0.00000	0.00000	0.00000	0.00000	0.00000	0.00000	0.00000	0.00000	0.00000	0.00000	0.00000	0.00000	0.00000	-3338.95239	603.32739	106.33183	-3333.85156	557.75787	119.23150	0.00000	0.00000	0.00000	-2795.67529	279.62408	52.20232	0.00000	0.00000	0.00000	0.00000	0.00000	0.00000	-3213.59106	254.93378	122.30304	0.00000	0.00000	0.00000	0.00000	0.00000	0.00000	0.00000	0.00000	0.00000	-3056.93872	68.55818	227.94141	-3277.21802	60.73038	218.55473	-3304.90210	67.34293	162.26285	-3233.57739	47.46010	105.85193
2311	9.24000	0.00000	0.00000	0.00000	-3390.71143	982.44189	417.69659	-3402.34888	677.67554	483.94418	0.00000	0.00000	0.00000	0.00000	0.00000	0.00000	0.00000	0.00000	0.00000	-3476.29614	514.95959	467.18796	0.00000	0.00000	0.00000	-3530.63452	422.75604	468.04605	-3536.41479	379.37271	476.14426	-3473.91846	413.24512	483.36237	-3484.93994	370.87936	488.87653	0.00000	0.00000	0.00000	-3334.50220	687.67603	472.70618	0.00000	0.00000	0.00000	0.00000	0.00000	0.00000	-3382.91821	715.80127	485.65131	0.00000	0.00000	0.00000	-3275.13965	501.98380	242.49379	0.00000	0.00000	0.00000	0.00000	0.00000	0.00000	0.00000	0.00000	0.00000	-3340.58740	603.08588	106.50096	-3335.45801	557.54321	119.31943	0.00000	0.00000	0.00000	-2799.63208	279.98499	52.61261	0.00000	0.00000	0.00000	0.00000	0.00000	0.00000	-3214.22998	255.01349	122.45406	0.00000	0.00000	0.00000	0.00000	0.00000	0.00000	0.00000	0.00000	0.00000	-3057.08960	68.65923	228.07237	-3277.25977	60.71821	218.58398	-3304.95996	67.29484	162.29922	-3233.64429	47.53342	105.89426
